<svg xmlns="http://www.w3.org/2000/svg" width="31" height="31" fill="none" viewBox="0 0 31 31"><path fill="#6F6F76" fill-rule="evenodd" d="M14.2083 1.35625H16.7917V5.16666H14.2083V1.35625ZM6.40665 4.58541L8.73165 6.8975L6.89749 8.71875L4.5854 6.40666L6.40665 4.58541ZM5.16666 14.2083H1.29166V16.7917H5.16666V14.2083ZM26.4115 6.39633L24.5938 4.57895L22.2832 6.88962L24.1007 8.70712L26.4115 6.39633ZM22.2683 24.1025L24.5804 26.4275L26.4017 24.6062L24.0767 22.2942L22.2683 24.1025ZM29.7083 14.2083H25.8333V16.7917H29.7083V14.2083ZM15.5 7.75C11.2246 7.75 7.74999 11.2246 7.74999 15.5C7.74999 19.7754 11.2246 23.25 15.5 23.25C19.7754 23.25 23.25 19.7754 23.25 15.5C23.25 11.2246 19.7754 7.75 15.5 7.75ZM10.3333 15.5C10.3333 18.3546 12.6454 20.6667 15.5 20.6667C18.3546 20.6667 20.6667 18.3546 20.6667 15.5C20.6667 12.6454 18.3546 10.3333 15.5 10.3333C12.6454 10.3333 10.3333 12.6454 10.3333 15.5ZM16.7917 25.8333V29.6438H14.2083V25.8333H16.7917ZM6.40665 26.4146L4.5854 24.5933L6.89749 22.2683L8.71874 24.0896L6.40665 26.4146Z" clip-rule="evenodd"/></svg>