<svg xmlns="http://www.w3.org/2000/svg" width="11" height="18" fill="none" viewBox="0 0 11 18"><path fill="#6F6F76" d="M5.80001 7.9C3.53001 7.31 2.80001 6.7 2.80001 5.75C2.80001 4.66 3.81001 3.9 5.50001 3.9C7.28001 3.9 7.94001 4.75 8.00001 6H10.21C10.14 4.28 9.09001 2.7 7.00001 2.19V0H4.00001V2.16C2.06001 2.58 0.500007 3.84 0.500007 5.77C0.500007 8.08 2.41001 9.23 5.20001 9.9C7.70001 10.5 8.20001 11.38 8.20001 12.31C8.20001 13 7.71001 14.1 5.50001 14.1C3.44001 14.1 2.63001 13.18 2.52001 12H0.320007C0.440007 14.19 2.08001 15.42 4.00001 15.83V18H7.00001V15.85C8.95001 15.48 10.5 14.35 10.5 12.3C10.5 9.46 8.07001 8.49 5.80001 7.9Z"/></svg>