<svg xmlns="http://www.w3.org/2000/svg" width="28" height="28" fill="none" viewBox="0 0 28 28"><path fill="#6F6F76" d="M13.9875 0.384401C6.25938 0.381276 0 6.63753 0 14.3594C0 20.4657 3.91562 25.6563 9.36875 27.5625C10.1031 27.7469 9.99063 27.225 9.99063 26.8688V24.4469C5.75 24.9438 5.57812 22.1375 5.29375 21.6688C4.71875 20.6875 3.35938 20.4375 3.76562 19.9688C4.73125 19.4719 5.71562 20.0938 6.85625 21.7782C7.68125 23 9.29062 22.7938 10.1062 22.5907C10.2844 21.8563 10.6656 21.2 11.1906 20.6906C6.79688 19.9031 4.96562 17.2219 4.96562 14.0344C4.96562 12.4875 5.475 11.0657 6.475 9.91878C5.8375 8.02815 6.53438 6.4094 6.62813 6.16878C8.44375 6.00628 10.3312 7.46878 10.4781 7.5844C11.5094 7.30628 12.6875 7.1594 14.0063 7.1594C15.3313 7.1594 16.5125 7.31253 17.5531 7.59378C17.9063 7.32503 19.6562 6.06878 21.3438 6.2219C21.4344 6.46253 22.1156 8.04378 21.5156 9.9094C22.5281 11.0594 23.0438 12.4938 23.0438 14.0438C23.0438 17.2375 21.2 19.9219 16.7938 20.6969C17.1712 21.0681 17.4708 21.5107 17.6753 21.999C17.8797 22.4872 17.9848 23.0113 17.9844 23.5406V27.0563C18.0094 27.3375 17.9844 27.6157 18.4531 27.6157C23.9875 25.75 27.9719 20.5219 27.9719 14.3625C27.9719 6.63753 21.7094 0.384401 13.9875 0.384401V0.384401Z"/></svg>