<svg xmlns="http://www.w3.org/2000/svg" width="35" height="34" fill="none" viewBox="0 0 35 34"><path fill="#FFA717" d="M34.913 9.19705C34.779 7.09159 34.3273 5.38151 32.8611 3.62002C29.9255 0.0986941 23.176 -0.487556 20.1572 2.90252C19.6306 3.40127 19.134 4.00174 18.6342 4.71924L17.5054 6.34291L16.3751 4.71924C15.8741 4.00174 15.3759 3.40073 14.8493 2.90252C11.8272 -0.487556 5.07881 0.0981472 2.1399 3.62002C0.672087 5.38151 0.220915 7.09159 0.086384 9.19705C-0.105022 15.4566 4.43732 20.4687 4.99787 21.2031C8.0806 24.8196 11.4433 28.2392 14.858 31.3898C15.476 31.9306 16.0097 32.3813 16.5435 32.8275C16.8645 33.0895 17.1811 33.3542 17.5 33.6145C17.8183 33.3536 18.1338 33.0889 18.4532 32.8275C18.9886 32.3818 19.5229 31.9306 20.1386 31.3898C23.555 28.2392 26.9183 24.8218 29.9988 21.2031C30.5599 20.4687 35.1022 15.4566 34.9097 9.19705"/></svg>