<svg xmlns="http://www.w3.org/2000/svg" width="338" height="338" fill="none" viewBox="0 0 338 338"><path fill="#FA0" d="M299.271 147.875C293.497 147.875 288.708 152.663 288.708 158.438H267.02C264.99 139.597 257.556 121.746 245.613 107.033L260.964 91.6825L261.105 91.8234C265.189 95.9075 271.949 95.9075 276.033 91.8234C280.118 87.7392 280.118 80.9792 276.033 76.895L261.105 61.9667C259.117 60.0023 256.435 58.9007 253.641 58.9007C250.846 58.9007 248.164 60.0023 246.177 61.9667C242.093 66.0509 242.093 72.67 246.036 76.7542L230.685 92.105C215.98 80.2638 198.19 72.8839 179.422 70.8392V49.2917H179.563C185.337 49.2917 190.125 44.5034 190.125 38.7292C190.125 32.955 185.337 28.1667 179.563 28.1667H158.438C152.663 28.1667 147.875 32.955 147.875 38.7292C147.875 44.5034 152.523 49.1509 158.297 49.2917V71.1209C139.003 73.0925 121.398 80.8384 107.033 92.3867L91.6825 77.0359L91.8233 76.895C95.9075 72.8109 95.9075 66.0509 91.8233 61.9667C89.8357 60.0023 87.1537 58.9007 84.3592 58.9007C81.5646 58.9007 78.8827 60.0023 76.895 61.9667L61.9667 76.895C57.8825 80.9792 57.8825 87.7392 61.9667 91.8234C66.0508 95.9075 72.67 95.9075 76.7542 91.9642L92.105 107.315C80.2525 121.945 72.9125 139.708 70.98 158.438H49.2917C49.2917 152.663 44.5033 147.875 38.7292 147.875C32.955 147.875 28.1667 152.663 28.1667 158.438V179.563C28.1667 185.337 32.955 190.125 38.7292 190.125C44.5033 190.125 49.2917 185.337 49.2917 179.563H70.98C73.0925 198.857 80.6975 216.32 92.105 230.685L76.7542 246.036C75.7744 245.073 74.6145 244.313 73.3408 243.799C72.0671 243.285 70.7046 243.028 69.3312 243.041C67.9578 243.054 66.6005 243.338 65.3368 243.876C64.0731 244.414 62.9279 245.196 61.9667 246.177C57.8825 250.261 57.8825 257.021 61.9667 261.105L76.895 276.033C80.9792 280.118 87.7392 280.118 91.8233 276.033C95.9075 271.949 95.9075 265.189 91.8233 261.105L91.6825 260.964L107.033 245.613C121.398 257.162 138.862 264.767 158.156 266.879V288.708C152.382 288.849 147.734 293.497 147.734 299.271C147.734 305.045 152.523 309.833 158.297 309.833H179.422C185.196 309.833 189.984 305.045 189.984 299.271C189.984 293.497 185.196 288.708 179.422 288.708H179.281V267.02C198.575 265.048 216.179 257.303 230.544 245.754L245.895 261.105C241.811 265.189 241.952 271.808 246.036 275.893C250.12 279.977 256.88 279.977 260.964 275.893L275.893 260.964C279.977 256.88 279.977 250.12 275.893 246.036C273.905 244.072 271.223 242.97 268.428 242.97C265.634 242.97 262.952 244.072 260.964 246.036L260.823 246.177L245.473 230.826C257.382 216.094 264.812 198.252 266.879 179.422H288.568C288.568 185.196 293.356 189.984 299.13 189.984C304.904 189.984 309.693 185.196 309.693 179.422V158.297C309.833 152.663 305.045 147.875 299.271 147.875V147.875ZM193.646 112.667C201.392 112.667 207.729 119.004 207.729 126.75C207.729 134.496 201.392 140.833 193.646 140.833C185.9 140.833 179.563 134.496 179.563 126.75C179.563 119.004 185.9 112.667 193.646 112.667ZM169 183.083C161.254 183.083 154.917 176.746 154.917 169C154.917 161.254 161.254 154.917 169 154.917C176.746 154.917 183.083 161.254 183.083 169C183.083 176.746 176.746 183.083 169 183.083ZM144.354 112.667C152.1 112.667 158.438 119.004 158.438 126.75C158.438 134.496 152.1 140.833 144.354 140.833C136.608 140.833 130.271 134.496 130.271 126.75C130.271 119.004 136.608 112.667 144.354 112.667ZM119.708 183.083C111.963 183.083 105.625 176.746 105.625 169C105.625 161.254 111.963 154.917 119.708 154.917C127.454 154.917 133.792 161.254 133.792 169C133.792 176.746 127.454 183.083 119.708 183.083ZM144.354 225.333C136.608 225.333 130.271 218.996 130.271 211.25C130.271 203.504 136.608 197.167 144.354 197.167C152.1 197.167 158.438 203.504 158.438 211.25C158.438 218.996 152.1 225.333 144.354 225.333ZM193.646 225.333C185.9 225.333 179.563 218.996 179.563 211.25C179.563 203.504 185.9 197.167 193.646 197.167C201.392 197.167 207.729 203.504 207.729 211.25C207.729 218.996 201.392 225.333 193.646 225.333ZM204.208 169C204.208 161.254 210.546 154.917 218.292 154.917C226.038 154.917 232.375 161.254 232.375 169C232.375 176.746 226.038 183.083 218.292 183.083C210.546 183.083 204.208 176.746 204.208 169Z"/></svg>